<?xml version="1.0" encoding="utf-8"?>
<!-- Generator: Adobe Illustrator 24.0.1, SVG Export Plug-In . SVG Version: 6.00 Build 0)  -->
<svg version="1.1" id="Layer_1" xmlns="http://www.w3.org/2000/svg" xmlns:xlink="http://www.w3.org/1999/xlink" x="0px" y="0px"
	 viewBox="0 0 250 54" style="enable-background:new 0 0 250 54;" xml:space="preserve">
<style type="text/css">
	.st0{fill-rule:evenodd;clip-rule:evenodd;fill:#1C1C0B;}
	.st1{fill:#FFFFFF;}
	.st2{font-family:'Helvetica-Bold';}
	.st3{font-size:18px;}
	.st4{display:none;}
	.st5{display:inline;}
	.st6{fill:#9595AC;}
	.st7{fill:url(#SVGID_1_);}
	.st8{fill:url(#SVGID_2_);}
	.st9{fill:url(#SVGID_3_);}
	.st10{fill:url(#SVGID_4_);}
	.st11{fill:#A0DDD8;}
	.st12{fill:url(#SVGID_5_);}
	.st13{fill:#FDECBF;}
	.st14{fill:#83839E;}
	.st15{fill:#D8DCE1;}
	.st16{fill:#F8C73F;}
	.st17{fill:#5C546A;}
	.st18{fill:#FFD200;}
	.st19{fill:#FF9600;}
	.st20{fill:#FF4F19;}
</style>
<g>
	<g transform="translate(-130.000000, -73.000000)">
		<g transform="translate(130.000000, 73.000000)">
			<path class="st0" d="M10.5,0.5h229c5.5,0,10,4.5,10,10v33c0,5.5-4.5,10-10,10h-229c-5.5,0-10-4.5-10-10v-33C0.5,5,5,0.5,10.5,0.5
				z"/>
			<text transform="matrix(1 0 0 1 48.8689 34.1592)" class="st1 st2 st3">Book an Appointment</text>
		</g>
	</g>
</g>
<g id="_30-appointment" class="st4">
	<g id="gradient" class="st5">
		<path class="st6" d="M22,18.8c-0.3,0-0.6-0.3-0.6-0.6c0-0.8-0.7-1.5-1.5-1.5c-0.3,0-0.6-0.3-0.6-0.6s0.3-0.6,0.6-0.6
			c1.5,0,2.7,1.2,2.7,2.7C22.6,18.5,22.3,18.8,22,18.8z"/>
		<path class="st6" d="M28.3,18.8c-0.3,0-0.6-0.3-0.6-0.6c0-0.8-0.7-1.5-1.5-1.5c-0.3,0-0.6-0.3-0.6-0.6s0.3-0.6,0.6-0.6
			c1.5,0,2.7,1.2,2.7,2.7C28.9,18.5,28.6,18.8,28.3,18.8z"/>
		<path class="st6" d="M34.6,18.8c-0.3,0-0.6-0.3-0.6-0.6c0-0.8-0.7-1.5-1.5-1.5c-0.3,0-0.6-0.3-0.6-0.6s0.3-0.6,0.6-0.6
			c1.5,0,2.7,1.2,2.7,2.7C35.2,18.5,34.9,18.8,34.6,18.8z"/>
		
			<linearGradient id="SVGID_1_" gradientUnits="userSpaceOnUse" x1="31.7028" y1="-944.3278" x2="42.0203" y2="-934.0103" gradientTransform="matrix(1 0 0 -1 0 -912)">
			<stop  offset="1.500000e-02" style="stop-color:#A6A6B9"/>
			<stop  offset="1" style="stop-color:#CACAD5"/>
		</linearGradient>
		<path class="st7" d="M35.8,18.2h2.1c0.3,0,0.6,0.3,0.6,0.6v16.8c0,0.3-0.3,0.6-0.6,0.6h-2.1c-0.3,0-0.6-0.3-0.6-0.6V18.8
			C35.2,18.4,35.5,18.2,35.8,18.2z"/>
		
			<linearGradient id="SVGID_2_" gradientUnits="userSpaceOnUse" x1="16.4028" y1="-948.7278" x2="35.5204" y2="-929.6103" gradientTransform="matrix(1 0 0 -1 0 -912)">
			<stop  offset="1.500000e-02" style="stop-color:#CACAD5"/>
			<stop  offset="1" style="stop-color:#DCDCE3"/>
		</linearGradient>
		<path class="st8" d="M16.1,18.2h19.7c0.3,0,0.6,0.3,0.6,0.6v16.8c0,0.3-0.3,0.6-0.6,0.6H16.1c-0.3,0-0.6-0.3-0.6-0.6V18.8
			C15.5,18.4,15.8,18.2,16.1,18.2z"/>
		
			<linearGradient id="SVGID_3_" gradientUnits="userSpaceOnUse" x1="14.6317" y1="-947.3683" x2="33.9592" y2="-928.0409" gradientTransform="matrix(1 0 0 -1 0 -912)">
			<stop  offset="1.500000e-02" style="stop-color:#BFE8E5"/>
			<stop  offset="1" style="stop-color:#DFF4F2"/>
		</linearGradient>
		<path class="st9" d="M36.3,18.4c-0.1-0.2-0.3-0.2-0.5-0.2H16.1c-0.3,0-0.5,0.2-0.6,0.5l-3.4,13.8c-0.1,0.3,0.1,0.7,0.5,0.8h0.1
			h19.7c0.3,0,0.5-0.2,0.6-0.5L36.4,19C36.5,18.8,36.4,18.6,36.3,18.4L36.3,18.4z"/>
		
			<linearGradient id="SVGID_4_" gradientUnits="userSpaceOnUse" x1="14.5627" y1="988.3" x2="36.4478" y2="988.3" gradientTransform="matrix(1 0 0 1 0 -968)">
			<stop  offset="1.100000e-02" style="stop-color:#F8C73F"/>
			<stop  offset="1" style="stop-color:#80D1CB"/>
		</linearGradient>
		<path class="st10" d="M36.4,18.9c0.1-0.3-0.1-0.7-0.5-0.8h-0.1H16.1c-0.3,0-0.5,0.2-0.6,0.5l-1,3.9h21L36.4,18.9z"/>
		<g>
			<path class="st11" d="M27.2,25.9h-1.7c-0.3,0-0.6-0.3-0.6-0.6s0.3-0.6,0.6-0.6h1.7c0.3,0,0.6,0.3,0.6,0.6S27.6,25.9,27.2,25.9z"
				/>
			<path class="st11" d="M23,25.9h-1.7c-0.3,0-0.6-0.3-0.6-0.6s0.3-0.6,0.6-0.6H23c0.3,0,0.6,0.3,0.6,0.6S23.4,25.9,23,25.9z"/>
			<path class="st11" d="M18.8,25.9h-1.7c-0.3,0-0.6-0.3-0.6-0.6s0.3-0.6,0.6-0.6h1.7c0.3,0,0.6,0.3,0.6,0.6S19.2,25.9,18.8,25.9z"
				/>
			<path class="st11" d="M31.4,25.9h-1.7c-0.3,0-0.6-0.3-0.6-0.6s0.3-0.6,0.6-0.6h1.7c0.3,0,0.6,0.3,0.6,0.6S31.8,25.9,31.4,25.9z"
				/>
			<path class="st11" d="M26.4,28.4h-1.7c-0.3,0-0.6-0.3-0.6-0.6c0-0.3,0.3-0.6,0.6-0.6h1.7c0.3,0,0.6,0.3,0.6,0.6
				S26.7,28.4,26.4,28.4z"/>
			<path class="st11" d="M22.2,28.4h-1.7c-0.3,0-0.6-0.3-0.6-0.6c0-0.3,0.3-0.6,0.6-0.6h1.7c0.3,0,0.6,0.3,0.6,0.6
				C22.8,28.1,22.5,28.4,22.2,28.4z"/>
			<path class="st11" d="M18,28.4h-1.7c-0.3,0-0.6-0.3-0.6-0.6c0-0.3,0.3-0.6,0.6-0.6H18c0.3,0,0.6,0.3,0.6,0.6S18.4,28.4,18,28.4z"
				/>
			<path class="st11" d="M30.6,28.4h-1.7c-0.3,0-0.6-0.3-0.6-0.6c0-0.3,0.3-0.6,0.6-0.6h1.7c0.3,0,0.6,0.3,0.6,0.6
				S30.9,28.4,30.6,28.4z"/>
			<path class="st11" d="M26,30.9h-1.7c-0.3,0-0.6-0.3-0.6-0.6s0.3-0.6,0.6-0.6H26c0.3,0,0.6,0.3,0.6,0.6S26.3,30.9,26,30.9z"/>
			<path class="st11" d="M21.8,30.9h-1.7c-0.3,0-0.6-0.3-0.6-0.6s0.3-0.6,0.6-0.6h1.7c0.3,0,0.6,0.3,0.6,0.6S22.1,30.9,21.8,30.9z"
				/>
			<path class="st11" d="M17.6,30.9h-1.7c-0.3,0-0.6-0.3-0.6-0.6s0.3-0.6,0.6-0.6h1.7c0.3,0,0.6,0.3,0.6,0.6S17.9,30.9,17.6,30.9z"
				/>
			<path class="st11" d="M30.2,30.9h-1.7c-0.3,0-0.6-0.3-0.6-0.6s0.3-0.6,0.6-0.6h1.7c0.3,0,0.6,0.3,0.6,0.6S30.5,30.9,30.2,30.9z"
				/>
		</g>
		<path class="st6" d="M32.5,20.9c-1.5,0-2.7-1.2-2.7-2.7s1.2-2.7,2.7-2.7c0.3,0,0.6,0.3,0.6,0.6s-0.3,0.6-0.6,0.6
			c-0.8,0-1.5,0.7-1.5,1.5s0.7,1.5,1.5,1.5c0.3,0,0.6,0.3,0.6,0.6S32.8,20.9,32.5,20.9z"/>
		<path class="st6" d="M26.2,20.9c-1.5,0-2.7-1.2-2.7-2.7s1.2-2.7,2.7-2.7c0.3,0,0.6,0.3,0.6,0.6s-0.3,0.6-0.6,0.6
			c-0.8,0-1.5,0.7-1.5,1.5s0.7,1.5,1.5,1.5c0.3,0,0.6,0.3,0.6,0.6C26.8,20.6,26.5,20.9,26.2,20.9z"/>
		<path class="st6" d="M19.9,20.9c-1.5,0-2.7-1.2-2.7-2.7s1.2-2.7,2.7-2.7c0.3,0,0.6,0.3,0.6,0.6s-0.3,0.6-0.6,0.6
			c-0.8,0-1.5,0.7-1.5,1.5s0.7,1.5,1.5,1.5c0.3,0,0.6,0.3,0.6,0.6S20.2,20.9,19.9,20.9z"/>
		
			<linearGradient id="SVGID_5_" gradientUnits="userSpaceOnUse" x1="29.3276" y1="-950.4724" x2="36.4391" y2="-943.3609" gradientTransform="matrix(1 0 0 -1 0 -912)">
			<stop  offset="1.100000e-02" style="stop-color:#F8C73F"/>
			<stop  offset="1" style="stop-color:#FADA7F"/>
		</linearGradient>
		<circle class="st12" cx="32.9" cy="34.9" r="5"/>
		<path class="st13" d="M32.9,29.2c-3.1,0-5.7,2.5-5.7,5.7s2.5,5.7,5.7,5.7s5.7-2.5,5.7-5.7C38.5,31.8,36,29.3,32.9,29.2z
			 M33.5,39.3v-0.6c0-0.3-0.3-0.6-0.6-0.6s-0.6,0.3-0.6,0.6v0.6c-1.9-0.3-3.4-1.8-3.7-3.7h0.6c0.3,0,0.6-0.3,0.6-0.6
			s-0.3-0.6-0.6-0.6h-0.6c0.3-1.9,1.8-3.4,3.7-3.7v0.6c0,0.3,0.3,0.6,0.6,0.6s0.6-0.3,0.6-0.6v-0.6c1.9,0.3,3.4,1.8,3.7,3.7h-0.6
			c-0.3,0-0.6,0.3-0.6,0.6s0.3,0.6,0.6,0.6h0.6C36.9,37.5,35.4,39,33.5,39.3z"/>
		<path class="st14" d="M32.9,35.5c-0.1,0-0.2,0-0.3-0.1l-1.7-0.8c-0.3-0.2-0.4-0.5-0.3-0.8c0.2-0.3,0.5-0.4,0.8-0.3l1.3,0.6
			l1.4-1.4c0.2-0.2,0.6-0.2,0.9,0c0.2,0.2,0.2,0.6,0,0.9l-1.7,1.7C33.2,35.5,33,35.5,32.9,35.5z"/>
	</g>
</g>
<g>
	<g>
		<path class="st15" d="M15.5,21v15.3c0,1,0.8,1.9,1.9,1.9h20.2c1,0,1.9-0.8,1.9-1.9V21H15.5z"/>
	</g>
	<g>
		<path class="st16" d="M37.6,15.8H17.4c-1,0-1.9,0.8-1.9,1.9V21h23.9v-3.4C39.4,16.6,38.6,15.8,37.6,15.8z M18.5,19.5
			c-0.6,0-1.1-0.5-1.1-1.1s0.5-1.1,1.1-1.1s1.1,0.5,1.1,1.1S19.1,19.5,18.5,19.5z M36.4,19.5c-0.6,0-1.1-0.5-1.1-1.1
			s0.5-1.1,1.1-1.1c0.6,0,1.1,0.5,1.1,1.1S37,19.5,36.4,19.5z"/>
	</g>
	<g>
		<g>
			<path class="st1" d="M27.5,24.4c-0.8,0-1.5,0.7-1.5,1.5s0.7,1.5,1.5,1.5c0.8,0,1.5-0.7,1.5-1.5S28.3,24.4,27.5,24.4z"/>
		</g>
		<g>
			<path class="st1" d="M23.7,24.4c-0.8,0-1.5,0.7-1.5,1.5s0.7,1.5,1.5,1.5c0.8,0,1.5-0.7,1.5-1.5S24.5,24.4,23.7,24.4z"/>
		</g>
		<g>
			<path class="st1" d="M20,24.4c-0.8,0-1.5,0.7-1.5,1.5s0.7,1.5,1.5,1.5c0.8,0,1.5-0.7,1.5-1.5S20.8,24.4,20,24.4z"/>
		</g>
		<g>
			<path class="st1" d="M31.2,24.4c-0.8,0-1.5,0.7-1.5,1.5s0.7,1.5,1.5,1.5c0.8,0,1.5-0.7,1.5-1.5S32,24.4,31.2,24.4z"/>
		</g>
		<g>
			<path class="st1" d="M34.9,27.4c0.8,0,1.5-0.7,1.5-1.5s-0.7-1.5-1.5-1.5s-1.5,0.7-1.5,1.5S34.1,27.4,34.9,27.4z"/>
		</g>
		<g>
			<path class="st1" d="M27.5,28.1c-0.8,0-1.5,0.7-1.5,1.5c0,0.8,0.7,1.5,1.5,1.5c0.8,0,1.5-0.7,1.5-1.5
				C29,28.8,28.3,28.1,27.5,28.1z"/>
		</g>
		<g>
			<path class="st1" d="M23.7,28.1c-0.8,0-1.5,0.7-1.5,1.5c0,0.8,0.7,1.5,1.5,1.5c0.8,0,1.5-0.7,1.5-1.5
				C25.2,28.8,24.5,28.1,23.7,28.1z"/>
		</g>
		<g>
			<path class="st1" d="M20,28.1c-0.8,0-1.5,0.7-1.5,1.5c0,0.8,0.7,1.5,1.5,1.5c0.8,0,1.5-0.7,1.5-1.5C21.5,28.8,20.8,28.1,20,28.1z
				"/>
		</g>
		<g>
			<path class="st1" d="M31.2,28.1c-0.8,0-1.5,0.7-1.5,1.5c0,0.8,0.7,1.5,1.5,1.5c0.8,0,1.5-0.7,1.5-1.5
				C32.7,28.8,32,28.1,31.2,28.1z"/>
		</g>
		<g>
			<path class="st1" d="M34.9,28.1c-0.8,0-1.5,0.7-1.5,1.5c0,0.8,0.7,1.5,1.5,1.5s1.5-0.7,1.5-1.5C36.4,28.8,35.8,28.1,34.9,28.1z"
				/>
		</g>
		<g>
			<path class="st1" d="M27.5,31.9c-0.8,0-1.5,0.7-1.5,1.5c0,0.8,0.7,1.5,1.5,1.5c0.8,0,1.5-0.7,1.5-1.5
				C29,32.6,28.3,31.9,27.5,31.9z"/>
		</g>
		<g>
			<path class="st1" d="M23.7,31.9c-0.8,0-1.5,0.7-1.5,1.5c0,0.8,0.7,1.5,1.5,1.5c0.8,0,1.5-0.7,1.5-1.5
				C25.2,32.6,24.5,31.9,23.7,31.9z"/>
		</g>
		<g>
			<path class="st1" d="M20,31.9c-0.8,0-1.5,0.7-1.5,1.5c0,0.8,0.7,1.5,1.5,1.5c0.8,0,1.5-0.7,1.5-1.5C21.5,32.6,20.8,31.9,20,31.9z
				"/>
		</g>
		<g>
			<path class="st1" d="M31.2,31.9c-0.8,0-1.5,0.7-1.5,1.5c0,0.8,0.7,1.5,1.5,1.5c0.8,0,1.5-0.7,1.5-1.5
				C32.7,32.6,32,31.9,31.2,31.9z"/>
		</g>
		<g>
			<path class="st1" d="M34.9,31.9c-0.8,0-1.5,0.7-1.5,1.5c0,0.8,0.7,1.5,1.5,1.5s1.5-0.7,1.5-1.5C36.4,32.6,35.8,31.9,34.9,31.9z"
				/>
		</g>
	</g>
	<g>
		<g>
			<path class="st17" d="M18.5,19c-0.3,0-0.6-0.3-0.6-0.6v-2.6c0-0.3,0.3-0.6,0.6-0.6s0.6,0.3,0.6,0.6v2.6C19,18.7,18.8,19,18.5,19z
				"/>
		</g>
	</g>
	<g>
		<g>
			<path class="st17" d="M36.4,19c-0.3,0-0.6-0.3-0.6-0.6v-2.6c0-0.3,0.3-0.6,0.6-0.6c0.3,0,0.6,0.3,0.6,0.6v2.6
				C37,18.7,36.7,19,36.4,19z"/>
		</g>
	</g>
	<g>
		<circle class="st18" cx="20" cy="25.9" r="1.5"/>
	</g>
	<g>
		<circle class="st19" cx="27.5" cy="33.4" r="1.5"/>
	</g>
	<g>
		<circle class="st20" cx="31.2" cy="29.6" r="1.5"/>
	</g>
</g>
</svg>
