<svg id="Layer_1" data-name="Layer 1" xmlns="http://www.w3.org/2000/svg" xmlns:xlink="http://www.w3.org/1999/xlink" viewBox="0 0 249 53">
  <defs>
    <style>
      .cls-1 {
        fill: #1c1c0b;
        fill-rule: evenodd;
      }

      .cls-2 {
        isolation: isolate;
        font-size: 18px;
        fill: #fff;
        font-family: Helvetica-Bold, Helvetica;
        font-weight: 700;
      }

      .cls-3 {
        letter-spacing: -0.04em;
      }

      .cls-4 {
        fill: #9595ac;
      }

      .cls-5 {
        fill: url(#linear-gradient);
      }

      .cls-6 {
        fill: url(#linear-gradient-2);
      }

      .cls-7 {
        fill: url(#linear-gradient-3);
      }

      .cls-8 {
        fill: url(#linear-gradient-4);
      }

      .cls-9 {
        fill: #a0ddd8;
      }

      .cls-10 {
        fill: url(#linear-gradient-5);
      }

      .cls-11 {
        fill: #fdecbf;
      }

      .cls-12 {
        fill: #83839e;
      }
    </style>
    <linearGradient id="linear-gradient" x1="31.7" y1="1000.33" x2="42.02" y2="990.01" gradientTransform="translate(0 -968)" gradientUnits="userSpaceOnUse">
      <stop offset="0.01" stop-color="#a6a6b9"/>
      <stop offset="1" stop-color="#cacad5"/>
    </linearGradient>
    <linearGradient id="linear-gradient-2" x1="16.4" y1="1004.73" x2="35.52" y2="985.61" gradientTransform="translate(0 -968)" gradientUnits="userSpaceOnUse">
      <stop offset="0.01" stop-color="#cacad5"/>
      <stop offset="1" stop-color="#dcdce3"/>
    </linearGradient>
    <linearGradient id="linear-gradient-3" x1="14.63" y1="1003.37" x2="33.96" y2="984.04" gradientTransform="translate(0 -968)" gradientUnits="userSpaceOnUse">
      <stop offset="0.01" stop-color="#bfe8e5"/>
      <stop offset="1" stop-color="#dff4f2"/>
    </linearGradient>
    <linearGradient id="linear-gradient-4" x1="14.56" y1="35.7" x2="36.45" y2="35.7" gradientTransform="matrix(1, 0, 0, -1, 0, 56)" gradientUnits="userSpaceOnUse">
      <stop offset="0.01" stop-color="#f8c73f"/>
      <stop offset="1" stop-color="#80d1cb"/>
    </linearGradient>
    <linearGradient id="linear-gradient-5" x1="29.33" y1="1006.47" x2="36.44" y2="999.36" gradientTransform="translate(-0.5 -968.5)" gradientUnits="userSpaceOnUse">
      <stop offset="0.01" stop-color="#f8c73f"/>
      <stop offset="1" stop-color="#fada7f"/>
    </linearGradient>
  </defs>
  <title>booknow</title>
  <g>
    <path class="cls-1" d="M10.5.5h229a10,10,0,0,1,10,10v33a10,10,0,0,1-10,10H10.5a10,10,0,0,1-10-10v-33A10,10,0,0,1,10.5.5Z" transform="translate(-0.5 -0.5)"/>
    <text class="cls-2" transform="translate(48.37 33.66)">Book an<tspan class="cls-3" x="71.01" y="0"> </tspan><tspan x="75.35" y="0">Appointment</tspan></text>
  </g>
  <g id="_30-appointment" data-name=" 30-appointment">
    <g id="gradient">
      <path class="cls-4" d="M22,18.8a.65.65,0,0,1-.6-.6,1.54,1.54,0,0,0-1.5-1.5.6.6,0,0,1,0-1.2,2.69,2.69,0,0,1,2.7,2.7A.65.65,0,0,1,22,18.8Z" transform="translate(-0.5 -0.5)"/>
      <path class="cls-4" d="M28.3,18.8a.65.65,0,0,1-.6-.6,1.54,1.54,0,0,0-1.5-1.5.6.6,0,1,1,0-1.2,2.69,2.69,0,0,1,2.7,2.7A.65.65,0,0,1,28.3,18.8Z" transform="translate(-0.5 -0.5)"/>
      <path class="cls-4" d="M34.6,18.8a.65.65,0,0,1-.6-.6,1.54,1.54,0,0,0-1.5-1.5.6.6,0,1,1,0-1.2,2.69,2.69,0,0,1,2.7,2.7A.65.65,0,0,1,34.6,18.8Z" transform="translate(-0.5 -0.5)"/>
      <path class="cls-5" d="M35.8,18.2h2.1a.65.65,0,0,1,.6.6V35.6a.65.65,0,0,1-.6.6H35.8a.65.65,0,0,1-.6-.6V18.8A.58.58,0,0,1,35.8,18.2Z" transform="translate(-0.5 -0.5)"/>
      <path class="cls-6" d="M16.1,18.2H35.8a.65.65,0,0,1,.6.6V35.6a.65.65,0,0,1-.6.6H16.1a.65.65,0,0,1-.6-.6V18.8A.58.58,0,0,1,16.1,18.2Z" transform="translate(-0.5 -0.5)"/>
      <path class="cls-7" d="M36.3,18.4c-.1-.2-.3-.2-.5-.2H16.1a.63.63,0,0,0-.6.5L12.1,32.5a.66.66,0,0,0,.5.8H32.4a.63.63,0,0,0,.6-.5L36.4,19a.66.66,0,0,0-.1-.6Z" transform="translate(-0.5 -0.5)"/>
      <path class="cls-8" d="M36.4,18.9a.66.66,0,0,0-.5-.8H16.1a.63.63,0,0,0-.6.5l-1,3.9h21Z" transform="translate(-0.5 -0.5)"/>
      <g>
        <path class="cls-9" d="M27.2,25.9H25.5a.6.6,0,1,1,0-1.2h1.7a.65.65,0,0,1,.6.6A.58.58,0,0,1,27.2,25.9Z" transform="translate(-0.5 -0.5)"/>
        <path class="cls-9" d="M23,25.9H21.3a.6.6,0,1,1,0-1.2H23a.65.65,0,0,1,.6.6A.58.58,0,0,1,23,25.9Z" transform="translate(-0.5 -0.5)"/>
        <path class="cls-9" d="M18.8,25.9H17.1a.6.6,0,1,1,0-1.2h1.7a.65.65,0,0,1,.6.6A.58.58,0,0,1,18.8,25.9Z" transform="translate(-0.5 -0.5)"/>
        <path class="cls-9" d="M31.4,25.9H29.7a.6.6,0,1,1,0-1.2h1.7a.65.65,0,0,1,.6.6A.58.58,0,0,1,31.4,25.9Z" transform="translate(-0.5 -0.5)"/>
        <path class="cls-9" d="M26.4,28.4H24.7a.6.6,0,0,1,0-1.2h1.7a.6.6,0,0,1,0,1.2Z" transform="translate(-0.5 -0.5)"/>
        <path class="cls-9" d="M22.2,28.4H20.5a.6.6,0,1,1,0-1.2h1.7a.6.6,0,0,1,0,1.2Z" transform="translate(-0.5 -0.5)"/>
        <path class="cls-9" d="M18,28.4H16.3a.6.6,0,1,1,0-1.2H18a.65.65,0,0,1,.6.6A.58.58,0,0,1,18,28.4Z" transform="translate(-0.5 -0.5)"/>
        <path class="cls-9" d="M30.6,28.4H28.9a.6.6,0,0,1,0-1.2h1.7a.6.6,0,1,1,0,1.2Z" transform="translate(-0.5 -0.5)"/>
        <path class="cls-9" d="M26,30.9H24.3a.6.6,0,1,1,0-1.2H26a.6.6,0,0,1,0,1.2Z" transform="translate(-0.5 -0.5)"/>
        <path class="cls-9" d="M21.8,30.9H20.1a.6.6,0,1,1,0-1.2h1.7a.6.6,0,1,1,0,1.2Z" transform="translate(-0.5 -0.5)"/>
        <path class="cls-9" d="M17.6,30.9H15.9a.6.6,0,0,1,0-1.2h1.7a.6.6,0,1,1,0,1.2Z" transform="translate(-0.5 -0.5)"/>
        <path class="cls-9" d="M30.2,30.9H28.5a.6.6,0,1,1,0-1.2h1.7a.6.6,0,0,1,0,1.2Z" transform="translate(-0.5 -0.5)"/>
      </g>
      <path class="cls-4" d="M32.5,20.9a2.7,2.7,0,0,1,0-5.4.6.6,0,1,1,0,1.2,1.5,1.5,0,0,0,0,3,.6.6,0,1,1,0,1.2Z" transform="translate(-0.5 -0.5)"/>
      <path class="cls-4" d="M26.2,20.9a2.7,2.7,0,0,1,0-5.4.6.6,0,1,1,0,1.2,1.5,1.5,0,0,0,0,3,.6.6,0,0,1,0,1.2Z" transform="translate(-0.5 -0.5)"/>
      <path class="cls-4" d="M19.9,20.9a2.7,2.7,0,1,1,0-5.4.6.6,0,1,1,0,1.2,1.5,1.5,0,0,0,0,3,.6.6,0,1,1,0,1.2Z" transform="translate(-0.5 -0.5)"/>
      <circle class="cls-10" cx="32.4" cy="34.4" r="5"/>
      <path class="cls-11" d="M32.9,29.2a5.7,5.7,0,0,0-5.7,5.7,5.7,5.7,0,0,0,11.4,0A5.9,5.9,0,0,0,32.9,29.2Zm.6,10.1v-.6a.6.6,0,0,0-1.2,0v.6a4.46,4.46,0,0,1-3.7-3.7h.6a.6.6,0,1,0,0-1.2h-.6a4.46,4.46,0,0,1,3.7-3.7v.6a.6.6,0,0,0,1.2,0v-.6a4.46,4.46,0,0,1,3.7,3.7h-.6a.6.6,0,1,0,0,1.2h.6A4.46,4.46,0,0,1,33.5,39.3Z" transform="translate(-0.5 -0.5)"/>
      <path class="cls-12" d="M32.9,35.5a.37.37,0,0,1-.3-.1l-1.7-.8a.6.6,0,0,1,.5-1.1l1.3.6,1.4-1.4a.64.64,0,0,1,.9.9l-1.7,1.7A.4.4,0,0,1,32.9,35.5Z" transform="translate(-0.5 -0.5)"/>
    </g>
  </g>
</svg>
