<svg xmlns="http://www.w3.org/2000/svg" viewBox="0 0 249 53">
  <defs>
    <style>
      .cls-1 {
        fill: #1c1c0b;
        fill-rule: evenodd;
      }

      .cls-2 {
        isolation: isolate;
        font-size: 18px;
        font-family: Helvetica-Bold, Helvetica;
        font-weight: 700;
      }

      .cls-2, .cls-6 {
        fill: #fff;
      }

      .cls-3 {
        letter-spacing: -0.04em;
      }

      .cls-4 {
        fill: #d8dce1;
      }

      .cls-5 {
        fill: #f8c73f;
      }

      .cls-7 {
        fill: #5c546a;
      }

      .cls-8 {
        fill: #ffd200;
      }

      .cls-9 {
        fill: #ff9600;
      }

      .cls-10 {
        fill: #ff4f19;
      }
    </style>
  </defs>
  <title>favoritesAsset 1</title>
  <g id="Layer_2" data-name="Layer 2">
    <g id="Layer_1-2" data-name="Layer 1">
      <g>
        <path class="cls-1" d="M10,0H239a10,10,0,0,1,10,10V43a10,10,0,0,1-10,10H10A10,10,0,0,1,0,43V10A10,10,0,0,1,10,0Z"/>
        <text class="cls-2" transform="translate(48.37 33.66)">Book an<tspan class="cls-3" x="71.01" y="0"> </tspan><tspan x="75.35" y="0">Appointment</tspan></text>
      </g>
      <g>
        <path class="cls-4" d="M15,20.54V35.87a1.87,1.87,0,0,0,1.87,1.87H37.05a1.87,1.87,0,0,0,1.87-1.87V20.54Z"/>
        <path class="cls-5" d="M37.05,15.31H16.86A1.87,1.87,0,0,0,15,17.17v3.37H38.92V17.17A1.87,1.87,0,0,0,37.05,15.31ZM18,19a1.12,1.12,0,1,1,1.13-1.12A1.12,1.12,0,0,1,18,19Zm18,0a1.12,1.12,0,1,1,1.12-1.12A1.12,1.12,0,0,1,35.93,19Z"/>
        <g>
          <path class="cls-6" d="M27,23.9a1.5,1.5,0,1,0,1.49,1.5A1.5,1.5,0,0,0,27,23.9Z"/>
          <path class="cls-6" d="M23.22,23.9a1.5,1.5,0,1,0,1.49,1.5A1.5,1.5,0,0,0,23.22,23.9Z"/>
          <path class="cls-6" d="M19.48,23.9A1.5,1.5,0,1,0,21,25.4,1.5,1.5,0,0,0,19.48,23.9Z"/>
          <path class="cls-6" d="M30.7,23.9a1.5,1.5,0,1,0,1.49,1.5A1.5,1.5,0,0,0,30.7,23.9Z"/>
          <path class="cls-6" d="M34.43,26.9a1.5,1.5,0,1,0-1.49-1.5A1.5,1.5,0,0,0,34.43,26.9Z"/>
          <path class="cls-6" d="M27,27.64a1.5,1.5,0,1,0,1.49,1.5A1.5,1.5,0,0,0,27,27.64Z"/>
          <path class="cls-6" d="M23.22,27.64a1.5,1.5,0,1,0,1.49,1.5A1.5,1.5,0,0,0,23.22,27.64Z"/>
          <path class="cls-6" d="M19.48,27.64A1.5,1.5,0,1,0,21,29.14,1.5,1.5,0,0,0,19.48,27.64Z"/>
          <path class="cls-6" d="M30.7,27.64a1.5,1.5,0,1,0,1.49,1.5A1.5,1.5,0,0,0,30.7,27.64Z"/>
          <path class="cls-6" d="M34.43,27.64a1.5,1.5,0,1,0,1.5,1.5A1.5,1.5,0,0,0,34.43,27.64Z"/>
          <path class="cls-6" d="M27,31.38a1.5,1.5,0,1,0,1.49,1.5A1.5,1.5,0,0,0,27,31.38Z"/>
          <path class="cls-6" d="M23.22,31.38a1.5,1.5,0,1,0,1.49,1.5A1.5,1.5,0,0,0,23.22,31.38Z"/>
          <path class="cls-6" d="M19.48,31.38A1.5,1.5,0,1,0,21,32.88,1.5,1.5,0,0,0,19.48,31.38Z"/>
          <path class="cls-6" d="M30.7,31.38a1.5,1.5,0,1,0,1.49,1.5A1.5,1.5,0,0,0,30.7,31.38Z"/>
          <path class="cls-6" d="M34.43,31.38a1.5,1.5,0,1,0,1.5,1.5A1.5,1.5,0,0,0,34.43,31.38Z"/>
        </g>
        <path class="cls-7" d="M18,18.48a.56.56,0,0,1-.56-.56V15.31a.56.56,0,1,1,1.12,0v2.61A.56.56,0,0,1,18,18.48Z"/>
        <path class="cls-7" d="M35.93,18.48a.56.56,0,0,1-.56-.56V15.31a.56.56,0,1,1,1.12,0v2.61A.56.56,0,0,1,35.93,18.48Z"/>
        <circle class="cls-8" cx="19.48" cy="25.4" r="1.5"/>
        <circle class="cls-9" cx="26.96" cy="32.88" r="1.5"/>
        <circle class="cls-10" cx="30.7" cy="29.14" r="1.5"/>
      </g>
    </g>
  </g>
</svg>
