<svg xmlns="http://www.w3.org/2000/svg" viewBox="0 0 202.08 53">
  <defs>
    <style>
      .cls-1 {
        fill: #1c1c0b;
        fill-rule: evenodd;
      }

      .cls-2 {
        isolation: isolate;
        font-size: 18px;
        fill: #fff;
        font-family: Helvetica-Bold, Helvetica;
        font-weight: 700;
      }

      .cls-3 {
        fill: #ffda2d;
      }

      .cls-4 {
        fill: #80aef8;
      }

      .cls-5 {
        fill: #4086f4;
      }

      .cls-6 {
        fill: #59c36a;
      }

      .cls-7 {
        fill: #00a66c;
      }

      .cls-8 {
        fill: #fdbf00;
      }

      .cls-9 {
        fill: #4175df;
      }

      .cls-10 {
        fill: #f03800;
      }
    </style>
  </defs>
  <title>favoritesAsset 2</title>
  <g id="Layer_2" data-name="Layer 2">
    <g id="Layer_1-2" data-name="Layer 1">
      <g>
        <path class="cls-1" d="M8.12,0H194c4.47,0,8.12,4.5,8.12,10V43c0,5.5-3.65,10-8.12,10H8.12C3.65,53,0,48.5,0,43V10C0,4.5,3.65,0,8.12,0Z"/>
        <text class="cls-2" transform="translate(57.01 33.52)">Get Directions</text>
      </g>
      <g>
        <g id="Google_Maps" data-name="Google Maps">
          <path class="cls-3" d="M39,27l-2.39,3.69-2.28,1A15.39,15.39,0,0,1,30.89,26l1.36-2.54,2.2-1a4.28,4.28,0,0,0-.07.72,3.92,3.92,0,0,0,3.91,3.91A4.28,4.28,0,0,0,39,27Z"/>
        </g>
        <path class="cls-4" d="M42.14,23.91a4.08,4.08,0,0,0,.06-.71,3.92,3.92,0,0,0-3.9-3.91h0a4.07,4.07,0,0,0-.71.07L41,15.89a7.78,7.78,0,0,1,4.56,4.56l-3.46,3.47Z"/>
        <path class="cls-5" d="M45.6,20.45l-1.18,2.31-2.28,1.16h0a4.08,4.08,0,0,0,.06-.71,3.92,3.92,0,0,0-3.9-3.91h0v-.65l.78-1.74,2-1A7.78,7.78,0,0,1,45.6,20.45Z"/>
        <g>
          <path class="cls-6" d="M45.6,20.45l-3.46,3.47A4,4,0,0,1,39,27h0l-3.77,3.78-.9.89.63.7C36.4,34,37.64,35.53,37.64,37a.65.65,0,1,0,1.3,0c0-1.44,1.24-2.93,2.67-4.56,2-2.25,4.5-5.07,4.5-9.21a7.42,7.42,0,0,0-.51-2.75Z"/>
          <path class="cls-7" d="M45.6,20.45l-3.46,3.47h0A4,4,0,0,1,39,27h0l-.72.72v9.86a.64.64,0,0,0,.65-.65c0-1.44,1.24-2.93,2.67-4.56,2-2.25,4.5-5.07,4.5-9.21a7.42,7.42,0,0,0-.51-2.75Z"/>
        </g>
        <g id="Google_Maps-2" data-name="Google Maps">
          <path class="cls-8" d="M38.29,27.76,39,27a4.28,4.28,0,0,1-.72.07Z"/>
        </g>
        <path class="cls-5" d="M41,15.89l-3.46,3.47a3.89,3.89,0,0,0-2,1.08l-2-.85-.74-1.92a7.73,7.73,0,0,1,5.52-2.29A7.42,7.42,0,0,1,41,15.89Z"/>
        <path class="cls-9" d="M38.29,18.64,41,15.89a7.42,7.42,0,0,0-2.75-.51v3.26Z"/>
        <path class="cls-10" d="M35.53,20.44a3.86,3.86,0,0,0-1.08,2L30.89,26a9.83,9.83,0,0,1-.42-2.84,7.77,7.77,0,0,1,2.3-5.53Z"/>
      </g>
    </g>
  </g>
</svg>
